<svg width="24" height="24" viewBox="0 0 24 24" fill="none" xmlns="http://www.w3.org/2000/svg">
<path fill-rule="evenodd" clip-rule="evenodd" d="M9.56771 21.9794C7.35589 21.1105 7 19.5043 7 17.6666C7 15.3365 9.39066 13.3788 12.6259 12.8239C11.4423 12.3031 10.0243 12 8.5 12C4.35786 12 1 14.2386 1 17C1 19.7614 1.80357 22 8.5 22C8.87399 22 9.22959 21.993 9.56771 21.9794Z" fill="#98A0B2"/>
<path d="M21 17.6666C21 20.0598 20.3036 21.9999 14.5 21.9999C8.69643 21.9999 8 20.0598 8 17.6666C8 15.2734 10.9101 13.3333 14.5 13.3333C18.0899 13.3333 21 15.2734 21 17.6666Z" fill="#D5DCE7"/>
<path fill-rule="evenodd" clip-rule="evenodd" d="M12.6094 5.27383C11.121 5.85646 10.0669 7.30513 10.0669 8.99999C10.0669 9.61816 10.2071 10.2036 10.4575 10.7262C10.0059 10.9029 9.51427 11 9 11C6.79086 11 5 9.20914 5 7C5 4.79086 6.79086 3 9 3C10.591 3 11.965 3.92884 12.6094 5.27383Z" fill="#98A0B2"/>
<circle cx="14.0668" cy="8.99999" r="3.46667" fill="#D5DCE7"/>
</svg>
