<svg width="24" height="24" viewBox="0 0 24 24" fill="none" xmlns="http://www.w3.org/2000/svg">
<path fill-rule="evenodd" clip-rule="evenodd" d="M21.0289 9.93069C21.0289 13.2061 18.3736 15.8614 15.0982 15.8614C14.7209 15.8614 14.3518 15.8261 13.9941 15.7588L11.6105 18.1424H10.0799V19.6731L9.78565 19.9672H8.25509V21.4979L7.75299 22H4.14923C3.64532 22 3.23682 21.5915 3.23682 21.0876V17.4838L9.3448 11.3757C9.22899 10.9132 9.1675 10.4291 9.1675 9.93069C9.1675 6.65526 11.8228 4 15.0982 4C18.3736 4 21.0289 6.65526 21.0289 9.93069ZM10.4962 14.5421C10.1399 14.1858 9.56222 14.1858 9.2059 14.5421L6.61914 17.1289C6.26282 17.4852 6.26282 18.0629 6.61914 18.4193C6.97546 18.7756 7.55317 18.7756 7.90949 18.4193L10.4962 15.8325C10.8526 15.4762 10.8526 14.8985 10.4962 14.5421Z" fill="#D5DCE7"/>
<path fill-rule="evenodd" clip-rule="evenodd" d="M14.186 6.28107C14.186 5.77715 14.5945 5.36865 15.0984 5.36865C15.6975 5.36865 16.2908 5.48665 16.8443 5.71592C17.3978 5.94518 17.9007 6.28122 18.3243 6.70485C18.7479 7.12848 19.084 7.6314 19.3132 8.18489C19.5425 8.73839 19.6605 9.33162 19.6605 9.93072C19.6605 10.4346 19.252 10.8431 18.7481 10.8431C18.2442 10.8431 17.8357 10.4346 17.8357 9.93072C17.8357 9.57126 17.7649 9.21532 17.6273 8.88322C17.4898 8.55112 17.2881 8.24937 17.034 7.9952C16.7798 7.74102 16.478 7.5394 16.1459 7.40184C15.8138 7.26428 15.4579 7.19348 15.0984 7.19348C14.5945 7.19348 14.186 6.78498 14.186 6.28107Z" fill="#98A0B2"/>
</svg>
