<svg width="73" height="24" viewBox="0 0 73 24" fill="none" xmlns="http://www.w3.org/2000/svg">
<path fill-rule="evenodd" clip-rule="evenodd" d="M54.1646 18.5391H56.7555V0H54.1646V18.5391ZM16.9927 4.65966V18.5389H19.5837V10.7473C19.5837 8.41743 20.7301 7.03973 22.9719 6.96418V4.28382C21.1532 4.38417 20.0817 4.98539 19.4593 5.91221H19.4089V4.65966H16.9927ZM7.29868 6.66428C10.1641 6.66428 12.1074 8.91868 12.1074 11.6244C12.1074 14.2547 9.98934 16.5096 7.29868 16.5096C4.70771 16.5096 2.59032 14.2304 2.59032 11.6244C2.59032 8.89388 4.70771 6.66428 7.29868 6.66428ZM12.0575 16.3844V18.5385H14.6485V4.65979H12.0575V6.61391H12.0082C10.9369 5.03512 9.24246 4.28395 7.22475 4.28395C3.16411 4.28395 0 7.39039 0 11.8248C0 15.8333 3.28852 18.8895 7.32444 18.8895C9.29243 18.8895 11.0366 18.0376 12.0082 16.3844H12.0575ZM35.2289 11.5993C35.2289 8.34252 32.763 6.66402 30.3715 6.66402C27.8053 6.66402 25.6379 8.89362 25.6379 11.5993C25.6379 14.255 27.8299 16.5094 30.3961 16.5094C33.4107 16.5094 35.2289 13.8538 35.2289 11.5993ZM35.1792 16.7098C34.1079 18.1631 32.3894 18.8898 30.421 18.8898C26.4595 18.8898 23.0471 15.4573 23.0471 11.6995C23.0471 7.5158 26.2858 4.28382 30.4457 4.28382C32.2398 4.28382 34.1331 5.0355 35.2292 6.26325V4.65966H37.82V16.7098C37.82 21.2193 35.0549 24 30.3717 24C27.2076 24 24.7163 22.3215 23.5448 19.6162H26.4354C27.4064 20.9939 28.7025 21.6204 30.3963 21.6204C33.5605 21.6204 35.2292 19.8917 35.2292 16.7098H35.1792ZM44.5927 18.2631L42.5755 23.1737H45.2651L52.8889 4.65992H50.0989L45.9381 15.4322L41.8779 4.65992H39.0876L44.5927 18.2631ZM65.4247 6.66402C67.6419 6.66402 69.7095 8.36732 69.9089 10.7226H60.9899C61.1892 8.34252 63.3067 6.66402 65.4247 6.66402ZM65.5246 16.5093C63.4071 16.5093 61.5878 15.0319 60.99 12.7267H72.4254C72.5 12.2506 72.5 11.85 72.5 11.424C72.5 7.44037 69.411 4.28382 65.3503 4.28382C61.6881 4.28382 58.399 7.34053 58.399 11.7243C58.399 15.4325 61.5384 18.8898 65.4248 18.8898C68.3895 18.8898 70.9805 17.0361 72.0518 14.1794H69.4608C68.6635 15.6579 67.1439 16.5093 65.5246 16.5093Z" fill="#242424"/>
</svg>
