<svg width="16" height="16" viewBox="0 0 16 16" fill="none" xmlns="http://www.w3.org/2000/svg">
<path d="M5.22597 5.87347L8.00373 8.62338L10.7815 5.87347C10.8478 5.80785 10.9265 5.7558 11.0131 5.72029C11.0997 5.68478 11.1925 5.6665 11.2862 5.6665C11.38 5.6665 11.4728 5.68478 11.5594 5.72029C11.646 5.7558 11.7247 5.80785 11.7909 5.87347C11.8572 5.93909 11.9098 6.01699 11.9457 6.10272C11.9815 6.18845 12 6.28034 12 6.37313C12 6.46593 11.9815 6.55781 11.9457 6.64355C11.9098 6.72928 11.8572 6.80718 11.7909 6.87279L8.50487 10.1259C8.43864 10.1916 8.35997 10.2437 8.27336 10.2793C8.18676 10.3149 8.09391 10.3332 8.00015 10.3332C7.90639 10.3332 7.81355 10.3149 7.72694 10.2793C7.64033 10.2437 7.56166 10.1916 7.49543 10.1259L4.20937 6.87279C4.143 6.80722 4.09034 6.72934 4.05442 6.6436C4.01849 6.55786 4 6.46595 4 6.37313C4 6.28031 4.01849 6.1884 4.05442 6.10266C4.09034 6.01692 4.143 5.93904 4.20937 5.87347C4.48857 5.60415 4.94676 5.59706 5.22597 5.87347Z" fill="#4C4F56"/>
</svg>
