<svg width="16" height="16" viewBox="0 0 16 16" fill="none" xmlns="http://www.w3.org/2000/svg">
<path d="M9.79303 5.22597L7.04313 8.00373L9.79303 10.7815C9.85865 10.8478 9.9107 10.9265 9.94621 11.0131C9.98172 11.0997 10 11.1925 10 11.2862C10 11.38 9.98172 11.4728 9.94621 11.5594C9.9107 11.646 9.85865 11.7247 9.79303 11.7909C9.72742 11.8572 9.64952 11.9098 9.56379 11.9457C9.47805 11.9815 9.38617 12 9.29337 12C9.20058 12 9.10869 11.9815 9.02296 11.9457C8.93723 11.9098 8.85933 11.8572 8.79371 11.7909L5.5406 8.50487C5.4749 8.43864 5.42277 8.35997 5.38721 8.27336C5.35164 8.18676 5.33333 8.09391 5.33333 8.00015C5.33333 7.90639 5.35164 7.81355 5.38721 7.72694C5.42277 7.64033 5.4749 7.56166 5.5406 7.49543L8.79371 4.20937C8.85928 4.143 8.93716 4.09034 9.0229 4.05442C9.10864 4.01849 9.20055 4 9.29337 4C9.38619 4 9.47811 4.01849 9.56384 4.05442C9.64958 4.09034 9.72747 4.143 9.79303 4.20937C10.0624 4.48857 10.0694 4.94676 9.79303 5.22597Z" fill="#4C4F56"/>
</svg>
