<svg width="48" height="48" viewBox="0 0 48 48" fill="none" xmlns="http://www.w3.org/2000/svg">
<path d="M15.9998 21.9996C14.8958 22.0002 14.0004 21.1058 13.9998 20.0019C13.9998 20.0011 13.9998 20.0004 13.9998 19.9996V13.9996C14.0022 8.4743 18.4834 3.99714 24.0087 3.9996C26.6535 4.00078 29.1903 5.0492 31.0642 6.91562C32.3243 8.18724 33.2258 9.76934 33.6775 11.5016C33.9542 12.5713 33.3114 13.6626 32.2417 13.9393C31.1721 14.216 30.0807 13.5732 29.804 12.5035C29.8035 12.5016 29.803 12.4996 29.8025 12.4976C29.531 11.4561 28.9893 10.5048 28.2322 9.73982C25.8769 7.40504 22.0748 7.4217 19.74 9.77704C18.6264 10.9004 18.0011 12.4178 17.9998 13.9996V19.9996C18.0004 21.1036 17.106 21.999 16.002 21.9996C16.0013 21.9996 16.0005 21.9996 15.9998 21.9996ZM26.9998 28.9996C26.9998 27.3428 25.6566 25.9996 23.9998 25.9996C22.3429 25.9996 20.9998 27.3428 20.9998 28.9996C20.9998 29.8846 21.3901 30.672 21.9998 31.2211V33.9996C21.9998 34.0004 21.9998 34.0011 21.9998 34.0019C22.0004 35.1058 22.8959 36.0002 23.9998 35.9996C24.0005 35.9996 24.0012 35.9996 24.0021 35.9996C25.106 35.999 26.0004 35.1035 25.9998 33.9996V31.2211C26.6094 30.672 26.9998 29.8846 26.9998 28.9996Z" fill="#A2A1FF"/>
<path d="M33.9998 18H13.9998C10.686 18 7.99976 20.6863 7.99976 24V38C7.99976 41.3137 10.686 44 13.9998 44H33.9998C37.3135 44 39.9998 41.3137 39.9998 38V24C39.9998 20.6863 37.3135 18 33.9998 18ZM25.9998 31.2214V34C26.0004 35.1039 25.106 35.9994 24.0021 36C24.0012 36 24.0005 36 23.9998 36C22.8959 36.0006 22.0004 35.1062 21.9998 34.0023C21.9998 34.0015 21.9998 34.0007 21.9998 34V31.2214C21.3901 30.6724 20.9998 29.885 20.9998 29C20.9998 27.3431 22.3429 26 23.9998 26C25.6566 26 26.9998 27.3431 26.9998 29C26.9998 29.885 26.6094 30.6724 25.9998 31.2214Z" fill="#6563FF"/>
</svg>
