<svg width="24" height="24" viewBox="0 0 24 24" fill="none" xmlns="http://www.w3.org/2000/svg">
<rect x="13.1997" y="2.3999" width="12" height="2.4" rx="1" transform="rotate(90 13.1997 2.3999)" fill="#98A0B2"/>
<path d="M8.3999 5.25229C8.3999 4.22229 7.35459 3.53371 6.5101 4.12341C4.02534 5.8585 2.3999 8.73935 2.3999 11.9998C2.3999 17.3018 6.69797 21.5998 11.9999 21.5998C17.3018 21.5998 21.5999 17.3018 21.5999 11.9998C21.5999 8.73935 19.9745 5.8585 17.4897 4.12341C16.6452 3.53371 15.5999 4.22229 15.5999 5.25229C15.5999 5.5684 15.7709 5.85704 16.0326 6.03431C17.9438 7.32882 19.1999 9.51764 19.1999 11.9998C19.1999 15.9763 15.9764 19.1998 11.9999 19.1998C8.02345 19.1998 4.7999 15.9763 4.7999 11.9998C4.7999 9.51764 6.05597 7.32882 7.96718 6.03431C8.2289 5.85704 8.3999 5.5684 8.3999 5.25229Z" fill="#D5DCE7"/>
</svg>
