<svg width="47" height="80" viewBox="0 0 47 80" fill="none" xmlns="http://www.w3.org/2000/svg">
<path d="M2.23666 67.7403L29.7357 39.9627L2.23666 12.1851C1.58049 11.5223 1.06 10.7354 0.704886 9.86938C0.349772 9.00337 0.166993 8.0752 0.166993 7.13785C0.166993 6.20049 0.349772 5.27231 0.704886 4.4063C1.06 3.5403 1.58049 2.75344 2.23666 2.09063C2.89282 1.42782 3.6718 0.902046 4.52912 0.543335C5.38644 0.184624 6.30531 7.31987e-08 7.23327 8.42645e-08C8.16122 9.53303e-08 9.08009 0.184624 9.93741 0.543335C10.7947 0.902046 11.5737 1.42782 12.2299 2.09063L44.761 34.9513C45.418 35.6136 45.9393 36.4003 46.2949 37.2664C46.6506 38.1324 46.8337 39.0609 46.8337 39.9985C46.8337 40.9361 46.6506 41.8645 46.2949 42.7306C45.9393 43.5967 45.418 44.3834 44.761 45.0457L12.2299 77.9063C11.5742 78.57 10.7954 79.0966 9.93799 79.4558C9.0806 79.8151 8.16149 80 7.23327 80C6.30504 80 5.38593 79.8151 4.52855 79.4558C3.67116 79.0966 2.89234 78.57 2.23666 77.9063C-0.456551 75.1143 -0.527424 70.5324 2.23666 67.7403Z" fill="#F2F6F9"/>
</svg>
