<svg width="16" height="16" viewBox="0 0 16 16" fill="none" xmlns="http://www.w3.org/2000/svg">
<path d="M2.02879 8.41952C1.90638 8.25753 1.80392 8.11532 1.72312 8C1.80392 7.88468 1.90638 7.74247 2.02879 7.58048C2.37071 7.12801 2.86428 6.52645 3.47168 5.92708C4.71134 4.70382 6.31366 3.6 8 3.6C9.68634 3.6 11.2887 4.70382 12.5283 5.92708C13.1357 6.52645 13.6293 7.12801 13.9712 7.58048C14.0936 7.74247 14.1961 7.88468 14.2769 8C14.1961 8.11532 14.0936 8.25753 13.9712 8.41952C13.6293 8.87199 13.1357 9.47355 12.5283 10.0729C11.2887 11.2962 9.68634 12.4 8 12.4C6.31366 12.4 4.71134 11.2962 3.47168 10.0729C2.86428 9.47355 2.37071 8.87199 2.02879 8.41952Z" stroke="#D5DCE7" stroke-width="1.2"/>
<circle cx="8" cy="8" r="2" fill="#98A0B2"/>
</svg>
