<svg width="16" height="16" viewBox="0 0 16 16" fill="none" xmlns="http://www.w3.org/2000/svg">
<path d="M5.87347 10.774L8.62338 7.99627L5.87347 5.21851C5.80785 5.15223 5.7558 5.07354 5.72029 4.98694C5.68478 4.90034 5.6665 4.80752 5.6665 4.71379C5.6665 4.62005 5.68478 4.52723 5.72029 4.44063C5.7558 4.35403 5.80785 4.27534 5.87347 4.20906C5.93909 4.14278 6.01698 4.0902 6.10272 4.05433C6.18845 4.01846 6.28034 4 6.37313 4C6.46593 4 6.55781 4.01846 6.64355 4.05433C6.72928 4.0902 6.80718 4.14278 6.87279 4.20906L10.1259 7.49513C10.1916 7.56136 10.2437 7.64003 10.2793 7.72664C10.3149 7.81324 10.3332 7.90609 10.3332 7.99985C10.3332 8.09361 10.3149 8.18645 10.2793 8.27306C10.2437 8.35967 10.1916 8.43834 10.1259 8.50457L6.87279 11.7906C6.80722 11.857 6.72934 11.9097 6.6436 11.9456C6.55786 11.9815 6.46595 12 6.37313 12C6.28031 12 6.1884 11.9815 6.10266 11.9456C6.01692 11.9097 5.93904 11.857 5.87347 11.7906C5.60415 11.5114 5.59706 11.0532 5.87347 10.774Z" fill="white"/>
</svg>
