<svg width="6" height="8" viewBox="0 0 6 8" fill="none" xmlns="http://www.w3.org/2000/svg">
<path d="M0.87347 6.77403L3.62338 3.99627L0.873471 1.21851C0.807854 1.15223 0.755805 1.07354 0.720293 0.986938C0.684782 0.900338 0.666504 0.80752 0.666504 0.713785C0.666504 0.620049 0.684782 0.527231 0.720293 0.44063C0.755805 0.35403 0.807854 0.275344 0.873471 0.209063C0.939087 0.142782 1.01698 0.0902042 1.10272 0.0543332C1.18845 0.0184622 1.28034 7.31987e-09 1.37313 8.42645e-09C1.46593 9.53303e-09 1.55781 0.0184622 1.64355 0.0543332C1.72928 0.0902043 1.80718 0.142782 1.87279 0.209063L5.1259 3.49513C5.19161 3.56136 5.24373 3.64003 5.2793 3.72664C5.31486 3.81324 5.33317 3.90609 5.33317 3.99985C5.33317 4.09361 5.31486 4.18645 5.2793 4.27306C5.24373 4.35967 5.19161 4.43834 5.1259 4.50457L1.87279 7.79063C1.80722 7.857 1.72934 7.90966 1.6436 7.94558C1.55786 7.98151 1.46595 8 1.37313 8C1.28031 8 1.1884 7.98151 1.10266 7.94558C1.01692 7.90966 0.939038 7.857 0.87347 7.79063C0.60415 7.51143 0.597062 7.05324 0.87347 6.77403Z" fill="#11243E"/>
</svg>
