<svg width="16" height="16" viewBox="0 0 16 16" fill="none" xmlns="http://www.w3.org/2000/svg">
<path fill-rule="evenodd" clip-rule="evenodd" d="M10.3058 11.1578C9.37832 11.8997 8.20182 12.3434 6.92169 12.3434C3.92737 12.3434 1.5 9.916 1.5 6.92169C1.5 3.92737 3.92737 1.5 6.92169 1.5C9.916 1.5 12.3434 3.92737 12.3434 6.92169C12.3434 8.20182 11.8997 9.37832 11.1578 10.3058L13.8236 12.9716C14.0588 13.2069 14.0588 13.5883 13.8236 13.8236C13.5883 14.0588 13.2069 14.0588 12.9716 13.8236L10.3058 11.1578ZM11.1386 6.92169C11.1386 9.2506 9.2506 11.1386 6.92169 11.1386C4.59278 11.1386 2.70482 9.2506 2.70482 6.92169C2.70482 4.59278 4.59278 2.70482 6.92169 2.70482C9.2506 2.70482 11.1386 4.59278 11.1386 6.92169Z" fill="#6E788F"/>
</svg>
