<svg width="16" height="16" viewBox="0 0 16 16" fill="none" xmlns="http://www.w3.org/2000/svg">
<path d="M2.33327 8.52261C2.33327 8.8908 2.63175 9.18928 2.99994 9.18928L8.05723 9.18928L6.52856 10.7179C6.40485 10.8432 6.33573 11.0124 6.33629 11.1884C6.33685 11.3645 6.40704 11.5332 6.53154 11.6577C6.65604 11.7822 6.82473 11.8524 7.0008 11.8529C7.17686 11.8535 7.34599 11.7843 7.47127 11.6606L10.1379 8.99394C10.1999 8.93206 10.249 8.85858 10.2825 8.7777C10.316 8.69682 10.3333 8.61014 10.3333 8.52259C10.3333 8.43505 10.316 8.34836 10.2825 8.26748C10.249 8.18661 10.1999 8.11313 10.1379 8.05124L7.47127 5.38457C7.34599 5.26086 7.17685 5.19174 7.00079 5.1923C6.82473 5.19286 6.65603 5.26305 6.53154 5.38755C6.40704 5.51205 6.33686 5.68074 6.33631 5.85681C6.33576 6.03287 6.40489 6.202 6.5286 6.32728L8.05723 7.85594L2.99994 7.85595C2.63175 7.85595 2.33327 8.15442 2.33327 8.52261Z" fill="#60D1FA"/>
<path d="M1.73325 11C1.73325 10.6686 2.00188 10.4 2.33325 10.4C2.66462 10.4 2.93325 10.6686 2.93325 11L1.73325 11ZM2.33325 13L1.73325 13.0007L1.73325 13L2.33325 13ZM2.91968 14.4136L2.49541 14.8378L2.49541 14.8378L2.91968 14.4136ZM4.33325 15L4.33325 15.6L4.3326 15.6L4.33325 15ZM10.9999 15L11.0006 15.6L10.9999 15.6L10.9999 15ZM12.9999 13L13.5999 13L13.5999 13.0007L12.9999 13ZM12.9999 3.66667L13.5999 3.66601L13.5999 3.66667L12.9999 3.66667ZM10.9999 1.66667L10.9999 1.06666L11.0006 1.06667L10.9999 1.66667ZM4.33325 1.66667L4.3326 1.06667L4.33325 1.06667L4.33325 1.66667ZM2.91968 2.25309L2.49541 1.82883L2.49541 1.82883L2.91968 2.25309ZM2.33325 3.66667L1.73325 3.66667L1.73325 3.66601L2.33325 3.66667ZM2.93325 6C2.93325 6.33137 2.66462 6.6 2.33325 6.6C2.00188 6.6 1.73325 6.33137 1.73325 6L2.93325 6ZM2.93325 11L2.93325 13L1.73325 13L1.73325 11L2.93325 11ZM2.93325 12.9993C2.93366 13.3707 3.08136 13.7267 3.34394 13.9893L2.49541 14.8378C2.0081 14.3505 1.734 13.6898 1.73325 13.0007L2.93325 12.9993ZM3.34394 13.9893C3.60653 14.2519 3.96255 14.3996 4.33391 14.4L4.3326 15.6C3.64344 15.5992 2.98272 15.3251 2.49541 14.8378L3.34394 13.9893ZM4.33325 14.4L10.9999 14.4L10.9999 15.6L4.33325 15.6L4.33325 14.4ZM10.9993 14.4C11.3706 14.3996 11.7266 14.2519 11.9892 13.9893L12.8378 14.8378C12.3504 15.3251 11.6897 15.5992 11.0006 15.6L10.9993 14.4ZM11.9892 13.9893C12.2518 13.7267 12.3995 13.3707 12.3999 12.9993L13.5999 13.0007C13.5992 13.6898 13.3251 14.3505 12.8378 14.8378L11.9892 13.9893ZM12.3999 13L12.3999 3.66667L13.5999 3.66667L13.5999 13L12.3999 13ZM12.3999 3.66732C12.3995 3.29597 12.2518 2.93994 11.9892 2.67735L12.8378 1.82883C13.3251 2.31614 13.5992 2.97685 13.5999 3.66601L12.3999 3.66732ZM11.9892 2.67735C11.7266 2.41477 11.3706 2.26707 10.9993 2.26666L11.0006 1.06667C11.6897 1.06742 12.3504 1.34152 12.8378 1.82883L11.9892 2.67735ZM10.9999 2.26667L4.33325 2.26667L4.33325 1.06667L10.9999 1.06666L10.9999 2.26667ZM4.33391 2.26667C3.96255 2.26707 3.60653 2.41477 3.34394 2.67736L2.49541 1.82883C2.98272 1.34152 3.64344 1.06742 4.3326 1.06667L4.33391 2.26667ZM3.34394 2.67736C3.08135 2.93994 2.93366 3.29597 2.93325 3.66732L1.73325 3.66601C1.734 2.97685 2.0081 2.31614 2.49541 1.82883L3.34394 2.67736ZM2.93325 3.66667L2.93325 6L1.73325 6L1.73325 3.66667L2.93325 3.66667Z" fill="white"/>
</svg>
