<svg width="16" height="16" viewBox="0 0 16 16" fill="none" xmlns="http://www.w3.org/2000/svg">
<path d="M8.00011 8.7085C8.00011 8.7085 9.63844 8.7085 10.4647 8.7085C10.535 8.7085 10.6046 8.7222 10.6695 8.74884C10.7345 8.77547 10.7935 8.81451 10.8432 8.86372C10.8929 8.91293 10.9323 8.97136 10.9592 9.03566C10.9862 9.09995 11 9.16887 11 9.23847C11 9.30806 10.9862 9.37698 10.9592 9.44128C10.9323 9.50558 10.8929 9.564 10.8432 9.61321L8.37866 12.053C8.32898 12.1023 8.26998 12.1414 8.20502 12.1681C8.14007 12.1948 8.07044 12.2085 8.00011 12.2085C7.92979 12.2085 7.86016 12.1948 7.79521 12.1681C7.73025 12.1414 7.67125 12.1023 7.62157 12.053L5.15702 9.61321C5.10725 9.56404 5.06776 9.50562 5.04081 9.44132C5.01387 9.37702 5 9.30808 5 9.23847C5 9.16885 5.01387 9.09992 5.04081 9.03561C5.06776 8.97131 5.10725 8.9129 5.15702 8.86372C5.23032 8.79302 5.37219 8.74302 5.55504 8.7085H8.00011Z" fill="#4C4F56"/>
<path d="M7.99989 6.95825C7.99989 6.95825 6.36156 6.95825 5.53534 6.95825C5.46504 6.95825 5.39542 6.94454 5.33047 6.91791C5.26552 6.89128 5.20651 6.85224 5.1568 6.80303C5.10709 6.75381 5.06765 6.69539 5.04075 6.63109C5.01385 6.56679 5 6.49788 5 6.42828C5 6.35868 5.01385 6.28977 5.04075 6.22547C5.06765 6.16117 5.10709 6.10275 5.1568 6.05354L7.62134 3.6137C7.67102 3.56442 7.73002 3.52533 7.79498 3.49866C7.85993 3.47198 7.92956 3.45825 7.99989 3.45825C8.07021 3.45825 8.13984 3.47198 8.20479 3.49866C8.26975 3.52533 8.32875 3.56442 8.37843 3.6137L10.843 6.05354C10.8928 6.10271 10.9322 6.16112 10.9592 6.22543C10.9861 6.28973 11 6.35866 11 6.42828C11 6.4979 10.9861 6.56683 10.9592 6.63114C10.9322 6.69544 10.8928 6.75385 10.843 6.80303C10.7697 6.87373 10.6278 6.92373 10.445 6.95825L7.99989 6.95825Z" fill="#4C4F56"/>
</svg>
