<svg width="24" height="24" viewBox="0 0 24 24" fill="none" xmlns="http://www.w3.org/2000/svg">
<path fill-rule="evenodd" clip-rule="evenodd" d="M18.5887 6.62183H5.41211V19.4999C5.41211 20.2796 6.04418 20.9117 6.82388 20.9117H17.1769C17.9566 20.9117 18.5887 20.2796 18.5887 19.4999V6.62183ZM10.1175 9.61774C9.59765 9.61774 9.17627 10.0391 9.17627 10.5589V16.206C9.17627 16.7258 9.59765 17.1472 10.1175 17.1472C10.6373 17.1472 11.0586 16.7258 11.0586 16.206V10.5589C11.0586 10.0391 10.6373 9.61774 10.1175 9.61774ZM13.8822 9.61774C13.3624 9.61774 12.941 10.0391 12.941 10.5589V16.206C12.941 16.7258 13.3624 17.1472 13.8822 17.1472C14.402 17.1472 14.8234 16.7258 14.8234 16.206V10.5589C14.8234 10.0391 14.402 9.61774 13.8822 9.61774Z" fill="#D5DCE7"/>
<path d="M14.663 3.97062H19.0589C19.5787 3.97062 20.0001 4.39198 20.0001 4.9118C20.0001 5.43162 19.5787 5.85299 19.0589 5.85299H14.663C14.663 5.85299 13.2294 5.85299 12 5.85299C10.7707 5.85299 9.33712 5.85299 9.33712 5.85299H4.94118C4.42142 5.85299 4 5.43162 4 4.9118C4 4.39198 4.42142 3.97062 4.94118 3.97062H9.33712C9.72476 2.87393 10.7707 2.08826 12 2.08826C13.2294 2.08826 14.2753 2.87393 14.663 3.97062Z" fill="#98A0B2"/>
</svg>
