<svg width="16" height="16" viewBox="0 0 16 16" fill="none" xmlns="http://www.w3.org/2000/svg">
<path d="M10.774 10.4597L7.99627 7.70981L5.21851 10.4597C5.15223 10.5253 5.07354 10.5774 4.98694 10.6129C4.90034 10.6484 4.80752 10.6667 4.71379 10.6667C4.62005 10.6667 4.52723 10.6484 4.44063 10.6129C4.35403 10.5774 4.27534 10.5253 4.20906 10.4597C4.14278 10.3941 4.0902 10.3162 4.05433 10.2305C4.01846 10.1447 4 10.0529 4 9.96006C4 9.86726 4.01846 9.77538 4.05433 9.68965C4.0902 9.60391 4.14278 9.52602 4.20906 9.4604L7.49513 6.20729C7.56136 6.14158 7.64003 6.08946 7.72664 6.05389C7.81324 6.01833 7.90609 6.00002 7.99985 6.00002C8.09361 6.00002 8.18645 6.01833 8.27306 6.05389C8.35967 6.08946 8.43834 6.14158 8.50457 6.20729L11.7906 9.4604C11.857 9.52597 11.9097 9.60385 11.9456 9.68959C11.9815 9.77533 12 9.86724 12 9.96006C12 10.0529 11.9815 10.1448 11.9456 10.2305C11.9097 10.3163 11.857 10.3942 11.7906 10.4597C11.5114 10.729 11.0532 10.7361 10.774 10.4597Z" fill="#4C4F56"/>
</svg>
