<svg width="1440" height="199" viewBox="0 0 1440 199" fill="none" xmlns="http://www.w3.org/2000/svg">
<g opacity="0.3">
<path opacity="0.3" d="M3732.99 32.4547C3706.36 37.9027 3570.26 59.4194 3324.66 97.005C3232.8 101.377 3138 93.2745 3082.94 76.3474L2891.27 17.4153C2871.91 11.4614 2840.86 7.93857 2807.83 7.93857H2588.84C2458.99 7.93857 2339.66 23.8166 2278.25 49.2618L2217.06 74.6219C2196.35 83.2066 2159.04 89.1951 2115.88 90.8647L1910.48 98.813C1853.44 101.02 1798.87 92.726 1787.38 80.1072L1756.11 45.739C1743.77 32.1883 1700.81 21.0207 1642.51 16.2197L1469.5 1.96602C1437.06 -0.70206 1400.71 2.31484 1384.09 9.06492L1161.02 99.6491C1137.63 109.147 1092.81 115.056 1044.1 115.056H795.058C777.128 115.056 760.438 113.029 750.718 109.682L616.688 63.4117C574.748 48.937 502.648 40.1925 425.228 40.1925H134.988" stroke="#11243E" stroke-width="0.599902"/>
<path opacity="0.3" d="M3732.99 36.1643C3713.36 40.4525 3575.62 61.7247 3319.77 99.981C3227.21 104.337 3131.9 96.0322 3077.33 78.8681L2889.94 20.3301C2870.65 14.2457 2839.21 10.635 2805.71 10.6643L2591.59 10.7442C2460.97 10.8374 2341.35 26.9976 2280.78 52.7092L2219.23 79.121C2198.82 87.7803 2161.57 93.8594 2118.28 95.5901L1909.77 103.988C1853.05 106.246 1798.5 98.0931 1786.49 85.5702L1751.26 50.2035C1738.05 36.6075 1693.96 25.5384 1635.01 20.9904L1468.05 7.48765C1436.34 4.95537 1400.97 7.9057 1384.53 14.4507L1162.1 102.74C1138.05 112.158 1092.81 117.899 1044.14 117.71L793.868 116.642C776.678 116.626 760.648 114.685 751.258 111.481L612.068 65.9004C569.068 51.7186 496.658 43.3469 419.698 43.6744L134.988 44.5532" stroke="#11243E" stroke-width="0.599902"/>
<path opacity="0.3" d="M3733 39.9476C3717.13 43.1275 3577.74 64.1292 3314.86 102.953C3221.62 107.295 3125.79 98.7852 3071.71 81.3841L2888.62 23.2403C2869.41 17.0281 2837.55 13.3322 2803.59 13.3881L2594.34 13.5478C2462.96 13.7369 2343.05 30.1767 2283.29 56.1545L2221.4 83.6182C2201.28 92.3494 2164.08 98.5189 2120.69 100.311L1909.06 109.162C1852.65 111.471 1798.15 103.456 1785.61 91.0286L1746.4 54.6661C1732.34 41.0248 1687.11 30.0542 1627.5 25.7566L1466.6 13.0046C1435.62 10.6161 1401.22 13.4893 1384.99 19.8346L1163.18 105.828C1138.48 115.167 1092.81 120.74 1044.18 120.364L792.688 118.226C776.208 118.191 760.858 116.336 751.788 113.284L607.478 68.3872C563.388 54.4983 490.658 46.5021 414.158 47.1571L134.988 48.9172" stroke="#11243E" stroke-width="0.599902"/>
<path opacity="0.3" d="M3732.99 43.759L3309.96 105.925C3216.03 110.255 3119.7 101.542 3066.1 83.9039L2887.3 26.1514C2868.16 19.8141 2835.87 16.033 2801.46 16.1128L2597.1 16.3578C2464.95 16.6347 2344.73 33.3568 2285.82 59.6009L2223.55 88.1163C2203.75 96.9221 2166.61 103.177 2123.08 105.036L1908.36 114.334C1852.26 116.696 1797.78 108.822 1784.71 96.4934L1741.55 59.1296C1726.62 45.4431 1680.27 34.571 1619.98 30.5263L1465.14 18.5253C1434.91 16.2753 1401.5 19.0765 1385.43 25.2195L1164.25 108.915C1138.9 118.171 1092.81 123.582 1044.21 123.017L791.508 119.809C775.758 119.761 761.078 117.99 752.318 115.082L602.868 70.8777C557.708 57.279 484.678 49.6582 408.628 50.6381L134.988 53.2795" stroke="#11243E" stroke-width="0.599902"/>
<path opacity="0.3" d="M3732.99 47.4586L3305.05 108.897C3210.44 113.216 3113.59 104.299 3060.48 86.4236L2885.97 29.0626C2866.92 22.5974 2834.21 18.7311 2799.34 18.8376L2599.85 19.1625C2466.94 19.5379 2346.43 36.5369 2288.33 63.05L2225.72 92.6145C2206.22 101.492 2169.14 107.84 2125.47 109.757L1907.65 119.508C1851.86 121.921 1797.42 114.188 1783.82 101.953L1736.7 63.5932C1720.9 49.8614 1673.44 39.0879 1612.47 35.2961L1463.7 24.0433C1434.18 21.9344 1401.75 24.6637 1385.88 30.6043L1165.32 112.002C1139.32 121.181 1092.79 126.424 1044.25 125.67L790.328 121.394C775.298 121.327 761.278 119.642 752.838 116.883L598.258 73.3681C552.028 60.0624 478.678 52.8143 403.098 54.1218L134.988 57.6419" stroke="#11243E" stroke-width="0.599902"/>
<path opacity="0.3" d="M3732.99 51.5177L3300.16 111.87C3204.83 116.178 3107.49 107.053 3054.87 88.9437L2884.66 31.9741C2865.67 25.3811 2832.55 21.4269 2797.22 21.5627L2602.6 21.9728C2468.92 22.4361 2348.13 39.7173 2290.85 66.494L2227.89 97.113C2208.68 106.065 2171.65 112.501 2127.88 114.479L1906.94 124.68C1851.47 127.149 1797.06 119.552 1782.94 107.412L1731.85 68.057C1715.17 54.2773 1666.59 43.605 1604.97 40.0662L1462.25 29.5643C1433.48 27.5965 1402.01 30.2513 1386.32 35.9895L1166.4 115.092C1139.75 124.185 1092.79 129.268 1044.28 128.326L789.128 122.976C774.838 122.896 761.498 121.291 753.368 118.687L593.648 75.8562C546.358 62.8407 472.688 55.9708 397.548 57.6031L134.988 62.0046" stroke="#11243E" stroke-width="0.599902"/>
<path opacity="0.3" d="M3733 55.3747L3295.26 114.842C3199.24 119.137 3101.39 109.81 3049.25 91.4632L2883.34 34.8877C2864.42 28.1643 2830.88 24.1275 2795.11 24.2873L2605.35 24.7773C2470.91 25.3364 2349.82 42.8973 2293.37 69.9429L2230.04 101.611C2211.15 110.638 2174.18 117.159 2130.28 119.201L1906.24 129.855C1851.07 132.371 1796.7 124.918 1782.04 112.875L1726.99 72.5204C1709.45 58.6954 1659.75 48.1216 1597.46 44.8331L1460.8 35.0821C1432.75 33.2555 1402.28 35.8357 1386.77 41.3742L1167.48 118.181C1140.18 127.195 1092.79 132.11 1044.32 130.979L787.958 124.564C774.378 124.463 761.698 122.945 753.908 120.485L589.038 78.3465C540.668 65.6212 466.688 59.1241 392.018 61.0866L134.988 66.3668" stroke="#11243E" stroke-width="0.599902"/>
<path opacity="0.3" d="M3732.99 59.3116L3290.35 117.817C3193.65 122.096 3095.29 112.564 3043.64 93.983L2882.01 37.7989C2863.18 30.9477 2829.21 26.8257 2792.97 27.0148L2608.1 27.5846C2472.9 28.237 2351.52 46.0774 2295.89 73.3893L2232.21 106.112C2213.61 115.21 2176.7 121.822 2132.68 123.923L1905.53 135.027C1850.67 137.599 1796.34 130.284 1781.15 118.337L1722.14 76.984C1703.74 63.1137 1652.92 52.6385 1589.95 49.6029L1459.35 40.6028C1432.04 38.9146 1402.54 41.4256 1387.22 46.7618L1168.56 121.268C1140.6 130.199 1092.79 134.952 1044.37 133.634L786.768 126.146C773.928 126.032 761.918 124.597 754.428 122.288L584.438 80.8343C534.988 68.402 460.708 62.2829 386.488 64.5676L134.988 70.7292" stroke="#11243E" stroke-width="0.599902"/>
<path opacity="0.3" d="M3733 63.402L3285.45 120.79C3188.06 125.056 3089.19 115.318 3038.02 96.5029L2880.7 40.7129C2861.92 33.7338 2827.55 29.5266 2790.87 29.7397L2610.85 30.392C2474.88 31.1376 2353.21 49.2576 2298.41 76.8358L2234.37 110.61C2216.08 119.781 2179.23 126.483 2135.08 128.645L1904.83 140.201C1850.28 142.821 1795.99 135.648 1780.25 123.799L1717.29 81.4503C1698.02 67.5321 1646.08 57.1527 1582.45 54.3728L1457.89 46.1209C1431.31 44.5739 1402.79 47.0129 1387.67 52.1441L1169.63 124.358C1141.03 133.209 1092.79 137.794 1044.4 136.284L785.568 127.729C773.458 127.601 762.118 126.251 754.958 124.086L579.828 83.3249C529.308 71.1827 454.708 65.4365 380.958 68.0513L134.988 75.0943" stroke="#11243E" stroke-width="0.599902"/>
<path opacity="0.3" d="M3732.99 67.2423L3280.54 123.762C3182.47 128.015 3083.09 118.075 3032.41 99.0227L2879.38 43.6242C2860.68 36.5146 2825.89 32.2222 2788.74 32.4646L2613.61 33.1995C2476.87 34.0382 2354.91 52.4379 2300.94 80.2823L2236.53 115.108C2218.55 124.353 2181.76 131.141 2137.47 133.367L1904.12 145.376C1849.88 148.049 1795.63 141.014 1779.37 129.258L1712.43 85.9113C1692.31 71.9505 1639.23 61.6696 1574.94 59.14L1456.44 51.6417C1430.59 50.2358 1403.07 52.5976 1388.11 57.529L1170.7 127.448C1141.45 136.216 1092.78 140.636 1044.44 138.94L784.398 129.314C772.998 129.168 762.338 127.903 755.488 125.89L575.218 85.8155C523.628 73.9662 448.718 68.5928 375.428 71.5351L134.988 79.4542" stroke="#11243E" stroke-width="0.599902"/>
<path opacity="0.3" d="M3733 71.3549L3275.65 126.738C3176.86 130.974 3076.99 120.832 3026.79 101.543L2878.05 46.5383C2859.43 39.301 2824.22 34.9207 2786.62 35.1897L2616.36 36.0071C2478.86 36.9364 2356.61 55.6183 2303.45 83.729L2238.7 119.607C2221.01 128.924 2184.28 135.804 2139.88 138.089L1903.41 150.548C1849.49 153.277 1795.27 146.381 1778.48 134.723L1707.58 90.3752C1686.58 76.3691 1632.38 66.1868 1567.44 63.9101L1454.99 57.16C1429.89 55.8952 1403.32 58.1879 1388.57 62.9143L1171.79 130.537C1141.87 139.223 1092.78 143.478 1044.47 141.593L783.218 130.9C772.548 130.737 762.548 129.555 756.018 127.688L570.608 88.3036C517.948 76.7446 442.718 71.7466 369.898 75.0165L134.988 83.8195" stroke="#11243E" stroke-width="0.599902"/>
<path opacity="0.3" d="M3732.99 75.7574L3270.75 129.71C3171.27 133.936 3070.89 123.588 3021.18 104.06L2876.73 49.4493C2858.19 42.0841 2822.56 37.6213 2784.5 37.9169L2619.1 38.8116C2480.85 39.8367 2358.3 58.7982 2305.98 87.1752L2240.86 124.105C2223.48 133.496 2186.8 140.465 2142.27 142.813L1902.71 155.722C1849.09 158.5 1794.91 151.744 1777.58 140.183L1702.73 94.8386C1680.87 80.7846 1625.55 70.7007 1559.93 68.6824L1453.53 62.6805C1429.16 61.5542 1403.58 63.7722 1389.01 68.2989L1172.87 133.624C1142.3 142.23 1092.78 146.32 1044.5 144.249L782.028 132.485C772.078 132.304 762.758 131.206 756.538 129.492L566.018 90.7912C512.258 79.5251 436.738 74.9052 364.348 78.4973L134.988 88.1817" stroke="#11243E" stroke-width="0.599902"/>
<path opacity="0.3" d="M3733 79.606L3265.84 132.682C3165.68 136.895 3064.78 126.342 3015.56 106.579L2875.42 52.3632C2856.94 44.8676 2820.89 40.3196 2782.38 40.6418L2621.86 41.619C2482.83 42.7374 2360 61.9784 2308.49 90.6243L2243.02 128.603C2225.95 138.069 2189.32 145.123 2144.67 147.535L1902 160.894C1848.7 163.727 1794.54 157.11 1776.7 145.645L1697.88 99.3022C1675.14 85.2029 1618.7 75.2176 1552.42 73.4495L1452.08 68.1986C1428.45 67.216 1403.85 69.3596 1389.46 73.6839L1173.94 136.711C1142.73 145.237 1092.78 149.162 1044.53 146.899L780.848 134.067C771.608 133.873 762.968 132.858 757.078 131.292L561.408 93.2844C506.588 82.3085 430.748 78.0614 358.818 81.9837L134.988 92.5415" stroke="#11243E" stroke-width="0.599902"/>
<path opacity="0.3" d="M3733 83.8099L3260.95 135.655C3160.09 139.854 3058.69 129.099 3009.95 109.099L2874.09 55.2744C2855.7 47.6536 2819.23 43.0151 2780.25 43.3666L2624.61 44.4263C2484.82 45.6379 2361.7 65.1585 2311.02 94.068L2245.18 133.101C2228.41 142.639 2191.85 149.783 2147.07 152.257L1901.29 166.069C1848.3 168.95 1794.19 162.477 1775.8 151.107L1693.02 103.766C1669.43 89.6186 1611.86 79.7344 1544.92 78.2193L1450.63 73.7193C1427.72 72.8725 1404.11 74.9468 1389.91 79.0687L1175.02 139.801C1143.15 148.244 1092.78 152.004 1044.57 149.554L779.658 135.65C771.158 135.439 763.168 134.513 757.608 133.093L556.798 95.7722C500.898 85.0866 424.748 81.2149 353.288 85.4647L134.988 96.9065" stroke="#11243E" stroke-width="0.599902"/>
<path opacity="0.3" d="M3732.99 88.0737L3256.05 138.627C3154.5 142.813 3052.58 131.853 3004.34 111.619L2872.77 58.1856C2854.45 50.4344 2817.57 45.716 2778.13 46.0914L2627.36 47.2337C2486.81 48.5358 2363.4 68.3387 2313.53 97.5172L2247.35 137.602C2230.88 147.212 2194.36 154.447 2149.47 156.982L1900.59 171.241C1847.91 174.178 1793.82 167.84 1774.91 156.569L1688.18 108.229C1663.7 94.0369 1605.03 84.2513 1537.4 82.9892L1449.17 79.2374C1427.01 78.5344 1404.36 80.5341 1390.35 84.4537L1176.1 142.89C1143.58 151.254 1092.77 154.846 1044.62 152.207L778.478 137.237C770.708 137.008 763.388 136.164 758.128 134.894L552.188 98.2601C495.218 87.87 418.768 84.3712 347.748 88.9458L134.988 101.269" stroke="#11243E" stroke-width="0.599902"/>
<path opacity="0.3" d="M3732.99 92.4268L3251.14 141.6C3148.9 145.772 3046.49 134.607 2998.72 114.139L2871.45 61.0995C2853.21 53.2204 2815.9 48.4141 2776.01 48.8189L2630.12 50.0384C2488.8 51.4364 2365.09 71.5188 2316.05 100.964L2249.51 142.1C2233.34 151.782 2196.89 159.105 2151.87 161.704L1899.88 176.415C1847.51 179.403 1793.46 173.207 1774.03 162.028L1683.33 112.693C1657.99 98.4552 1598.19 88.7682 1529.89 87.759L1447.72 84.758C1426.29 84.1962 1404.64 86.1187 1390.8 89.8386L1177.16 145.98C1144 154.259 1092.77 157.688 1044.65 154.863L777.288 138.82C770.238 138.575 763.608 137.816 758.648 136.692L547.588 100.75C489.538 90.6481 412.768 87.5273 342.218 92.4268L134.988 105.631" stroke="#11243E" stroke-width="0.599902"/>
<path opacity="0.3" d="M3732.99 97.1238L3246.24 144.575C3143.31 148.734 3040.38 137.364 2993.11 116.659L2870.12 64.0107C2851.95 56.0011 2814.24 51.115 2773.89 51.5437L2632.87 52.8484C2490.78 54.3369 2366.79 74.699 2318.57 104.41L2251.67 146.599C2235.81 156.355 2199.41 163.765 2154.27 166.425L1899.17 181.59C1847.12 184.628 1793.1 178.573 1773.13 167.491L1678.48 117.157C1652.27 102.874 1591.34 93.2823 1522.38 92.5261L1446.28 90.2761C1425.58 89.8527 1404.89 91.7086 1391.24 95.2235L1178.24 149.067C1144.42 157.268 1092.77 160.53 1044.69 157.513L776.098 140.405C769.778 140.144 763.808 139.468 759.178 138.496L542.978 103.241C483.848 93.4288 406.778 90.6835 336.688 95.9131L134.988 109.994" stroke="#11243E" stroke-width="0.599902"/>
<path opacity="0.3" d="M3732.99 101.311L3241.35 147.547C3137.72 151.693 3034.29 140.121 2987.5 119.178L2868.81 66.9218C2850.7 58.7871 2812.57 53.8104 2771.76 54.2684L2635.62 55.653C2492.77 57.2374 2368.48 77.879 2321.09 107.856L2253.84 151.097C2238.28 160.925 2201.94 168.429 2156.66 171.147L1898.47 186.764C1846.72 189.853 1792.74 183.937 1772.24 172.953L1673.62 121.623C1646.56 107.292 1584.51 97.7991 1514.88 97.2958L1444.83 95.794C1424.86 95.5144 1405.14 97.2958 1391.69 100.608L1179.32 152.154C1144.85 160.273 1092.77 163.372 1044.73 160.169L774.918 141.99C769.328 141.713 764.018 141.12 759.698 140.294L538.368 105.729C478.168 96.2121 400.788 93.8369 331.138 99.3941L134.988 114.356" stroke="#11243E" stroke-width="0.599902"/>
<path opacity="0.3" d="M3733 105.993L3236.44 150.52C3132.12 154.652 3028.18 142.875 2981.88 121.698L2867.49 69.8329C2849.46 61.5731 2810.91 56.5085 2769.64 56.9931L2638.38 58.463C2494.76 60.1378 2370.18 81.0591 2323.62 111.3L2256 155.595C2240.74 165.5 2204.47 173.089 2159.07 175.869L1897.76 191.939C1846.33 195.078 1792.38 189.303 1771.35 178.415L1668.77 126.084C1640.84 111.71 1577.66 102.316 1507.38 102.066L1443.38 101.312C1424.13 101.174 1405.41 102.88 1392.15 105.993L1180.4 155.243C1145.27 163.282 1092.77 166.214 1044.76 162.822L773.728 143.575C768.858 143.28 764.228 142.774 760.238 142.097L533.758 108.217C472.488 98.9901 394.798 96.993 325.618 102.875L134.988 118.721" stroke="#11243E" stroke-width="0.599902"/>
<path opacity="0.3" d="M3732.99 110.707L3231.54 153.495C3126.53 157.612 3022.08 145.632 2976.27 124.218L2866.17 72.7472C2848.21 64.3542 2809.24 59.2098 2767.52 59.7184L2641.13 61.2681C2496.75 63.0361 2371.88 84.2396 2326.13 114.749L2258.16 160.093C2243.21 170.071 2206.99 177.747 2161.46 180.594L1897.06 197.111C1845.93 200.304 1792.02 194.669 1770.46 183.874L1663.93 130.55C1635.1 116.129 1570.81 106.833 1499.88 106.833H1441.92C1423.42 106.833 1405.67 108.471 1392.59 111.378L1181.47 158.333C1145.7 166.287 1092.76 169.059 1044.8 165.477L772.558 145.158C768.408 144.849 764.438 144.426 760.768 143.899L529.158 110.707C466.808 101.774 388.798 100.152 320.078 106.359L134.988 123.084" stroke="#11243E" stroke-width="0.599902"/>
<path opacity="0.3" d="M134.988 40.1901L-273.342 97.0051C-365.202 101.377 -460.002 93.2746 -515.062 76.3475L-706.732 17.4154C-726.092 11.4615 -757.142 7.93872 -790.172 7.93872H-1009.16C-1107.27 7.93872 -1199.36 17.0014 -1265.01 32.4055" stroke="#11243E" stroke-width="0.599902"/>
<path opacity="0.3" d="M134.988 44.5499L-278.232 99.9809C-370.792 104.337 -466.102 96.032 -520.672 78.8679L-708.062 20.3299C-727.352 14.2455 -758.792 10.6349 -792.292 10.664L-1006.41 10.744C-1106.15 10.8152 -1199.49 20.2557 -1265.01 36.1641" stroke="#11243E" stroke-width="0.599902"/>
<path opacity="0.3" d="M134.988 48.92L-283.142 102.953C-376.382 107.296 -472.212 98.7854 -526.292 81.3843L-709.382 23.2404C-728.592 17.0282 -760.452 13.3323 -794.402 13.3876L-1003.66 13.548C-1105.07 13.6939 -1199.66 23.523 -1265.01 39.9477" stroke="#11243E" stroke-width="0.599902"/>
<path opacity="0.3" d="M134.988 53.2799L-288.042 105.925C-381.972 110.255 -478.302 101.542 -531.902 83.9039L-710.692 26.1514C-729.842 19.8141 -762.132 16.033 -796.542 16.1128L-1000.9 16.3578C-1104.03 16.5739 -1199.88 26.8043 -1265.01 43.759" stroke="#11243E" stroke-width="0.599902"/>
<path opacity="0.3" d="M134.988 57.6399L-292.952 108.897C-387.562 113.216 -484.411 104.299 -537.521 86.4236L-712.021 29.0626C-731.081 22.5974 -763.792 18.7311 -798.652 18.8376L-998.152 19.1625C-1103.01 19.4587 -1200.15 30.1019 -1265.01 47.6009" stroke="#11243E" stroke-width="0.599902"/>
<path opacity="0.3" d="M134.988 62.0001L-297.842 111.87C-393.172 116.178 -490.512 107.053 -543.132 88.9437L-713.342 31.9741C-732.332 25.3811 -765.441 21.4269 -800.771 21.5627L-995.402 21.9728C-1102.03 22.3424 -1200.47 33.4139 -1265.01 51.4703" stroke="#11243E" stroke-width="0.599902"/>
<path opacity="0.3" d="M134.988 66.3699L-302.742 114.842C-398.762 119.137 -496.612 109.81 -548.752 91.4632L-714.662 34.8877C-733.572 28.1643 -767.122 24.1275 -802.892 24.2873L-992.652 24.7773C-1101.1 25.2283 -1200.86 36.7427 -1265.01 55.3747" stroke="#11243E" stroke-width="0.599902"/>
<path opacity="0.3" d="M134.988 70.73L-307.652 117.817C-404.352 122.096 -502.712 112.564 -554.362 93.983L-715.992 37.7989C-734.822 30.9477 -768.781 26.8257 -805.021 27.0148L-989.902 27.5846C-1100.2 28.1168 -1201.3 40.0893 -1265.01 59.3116" stroke="#11243E" stroke-width="0.599902"/>
<path opacity="0.3" d="M134.988 75.09L-312.552 120.79C-409.942 125.056 -508.812 115.318 -559.982 96.5029L-717.302 40.7129C-736.082 33.7338 -770.452 29.5266 -807.132 29.7397L-987.152 30.392C-1099.35 31.0073 -1201.82 43.4549 -1265.01 63.2858" stroke="#11243E" stroke-width="0.599902"/>
<path opacity="0.3" d="M134.988 79.4501L-317.452 123.762C-415.532 128.015 -514.912 118.075 -565.592 99.0227L-718.622 43.6242C-737.322 36.5146 -772.112 32.2222 -809.262 32.4646L-984.392 33.1995C-1098.55 33.8998 -1202.42 46.8412 -1265.01 67.3004" stroke="#11243E" stroke-width="0.599902"/>
<path opacity="0.3" d="M134.988 83.8201L-322.352 126.738C-421.132 130.974 -521.012 120.832 -571.212 101.543L-719.952 46.5383C-738.572 39.301 -773.782 34.9207 -811.382 35.1897L-981.642 36.0071C-1097.8 36.7922 -1203.08 50.2478 -1265.01 71.3549" stroke="#11243E" stroke-width="0.599902"/>
<path opacity="0.3" d="M134.988 88.18L-327.252 129.71C-426.722 133.936 -527.112 123.588 -576.822 104.06L-721.271 49.4493C-739.811 42.0841 -775.442 37.6213 -813.502 37.9169L-978.902 38.8116C-1097.11 39.6882 -1203.85 53.6784 -1265.01 75.4554" stroke="#11243E" stroke-width="0.599902"/>
<path opacity="0.3" d="M134.988 92.5401L-332.162 132.682C-432.322 136.895 -533.222 126.342 -582.442 106.579L-722.582 52.3632C-741.062 44.8676 -777.102 40.3196 -815.622 40.6418L-976.142 41.619C-1096.48 42.5871 -1204.69 57.1342 -1265.01 79.606" stroke="#11243E" stroke-width="0.599902"/>
<path opacity="0.3" d="M134.988 96.91L-337.052 135.655C-437.912 139.854 -539.312 129.099 -588.052 109.099L-723.912 55.2744C-742.302 47.6536 -778.772 43.0151 -817.752 43.3666L-973.392 44.4263C-1095.93 45.4884 -1205.66 60.619 -1265.01 83.8099" stroke="#11243E" stroke-width="0.599902"/>
<path opacity="0.3" d="M134.988 101.27L-341.952 138.627C-443.502 142.813 -545.422 131.853 -593.652 111.619L-725.232 58.1856C-743.552 50.4344 -780.432 45.716 -819.872 46.0914L-970.642 47.2337C-1095.44 48.3899 -1206.73 64.1327 -1265.01 88.0737" stroke="#11243E" stroke-width="0.599902"/>
<path opacity="0.3" d="M134.988 105.63L-346.862 141.6C-449.102 145.772 -551.512 134.607 -599.282 114.139L-726.552 61.0995C-744.792 53.2204 -782.102 48.4141 -821.992 48.8189L-967.882 50.0384C-1095.04 51.2962 -1207.93 67.6802 -1265.01 92.4001" stroke="#11243E" stroke-width="0.599902"/>
<path opacity="0.3" d="M134.988 109.99L-351.752 144.575C-454.692 148.734 -557.622 137.364 -604.882 116.659L-727.872 64.0107C-746.052 56.0011 -783.762 51.115 -824.112 51.5437L-965.132 52.8484C-1094.74 54.2062 -1209.3 71.2684 -1265.01 96.8056" stroke="#11243E" stroke-width="0.599902"/>
<path opacity="0.3" d="M134.988 114.36L-356.652 147.547C-460.282 151.693 -563.712 140.121 -610.502 119.178L-729.192 66.9218C-747.292 58.7871 -785.432 53.8104 -826.242 54.2684L-962.382 55.653C-1094.54 57.1189 -1210.82 74.8974 -1265.01 101.29" stroke="#11243E" stroke-width="0.599902"/>
<path opacity="0.3" d="M134.988 118.72L-361.562 150.52C-465.872 154.652 -569.822 142.875 -616.112 121.698L-730.512 69.8329C-748.542 61.5731 -787.092 56.5085 -828.362 56.9931L-959.622 58.463C-1094.48 60.0357 -1212.56 78.5791 -1265.01 105.874" stroke="#11243E" stroke-width="0.599902"/>
<path opacity="0.3" d="M134.988 123.08L-366.462 153.495C-471.462 157.612 -575.922 145.632 -621.732 124.218L-731.832 72.7472C-749.782 64.3542 -788.752 59.2098 -830.482 59.7184L-956.872 61.2681C-1094.57 62.9542 -1214.51 82.317 -1265.01 110.57" stroke="#11243E" stroke-width="0.599902"/>
</g>
</svg>
