<svg width="1440" height="198" viewBox="0 0 1440 198" fill="none" xmlns="http://www.w3.org/2000/svg">
<g opacity="0.3">
<path opacity="0.3" d="M-2046.99 32.4547C-2020.36 37.9027 -1884.26 59.4194 -1638.66 97.005C-1546.8 101.377 -1452 93.2745 -1396.94 76.3474L-1205.27 17.4153C-1185.91 11.4614 -1154.86 7.93857 -1121.83 7.93857H-902.838C-772.988 7.93857 -653.658 23.8166 -592.248 49.2618L-531.058 74.6219C-510.348 83.2066 -473.038 89.1951 -429.878 90.8647L-224.478 98.813C-167.438 101.02 -112.868 92.726 -101.378 80.1072L-70.1084 45.739C-57.7684 32.1883 -14.8084 21.0207 43.4916 16.2197L216.502 1.96602C248.942 -0.70206 285.291 2.31484 301.911 9.06492L524.982 99.6491C548.372 109.147 593.191 115.056 641.901 115.056H890.942C908.872 115.056 925.562 113.029 935.282 109.682L1069.31 63.4117C1111.25 48.937 1183.35 40.1925 1260.77 40.1925H1551.01" stroke="#11243E" stroke-width="0.599902"/>
<path opacity="0.3" d="M-2046.99 36.1641C-2027.36 40.4522 -1889.62 61.7245 -1633.77 99.9808C-1541.21 104.337 -1445.9 96.032 -1391.33 78.8679L-1203.94 20.3299C-1184.65 14.2455 -1153.21 10.6348 -1119.71 10.6641L-905.588 10.7439C-774.968 10.8371 -655.348 26.9974 -594.778 52.709L-533.228 79.1208C-512.818 87.7801 -475.568 93.8592 -432.278 95.5899L-223.768 103.988C-167.048 106.246 -112.498 98.0929 -100.488 85.57L-65.2584 50.2033C-52.0484 36.6073 -7.95842 25.5382 50.9916 20.9902L217.952 7.48741C249.662 4.95513 285.032 7.90546 301.472 14.4505L523.901 102.74C547.951 112.158 593.192 117.899 641.862 117.71L892.132 116.642C909.322 116.626 925.352 114.685 934.742 111.481L1073.93 65.9002C1116.93 51.7184 1189.34 43.3467 1266.3 43.6742L1551.01 44.553" stroke="#11243E" stroke-width="0.599902"/>
<path opacity="0.3" d="M-2047 39.9478C-2031.13 43.1277 -1891.74 64.1295 -1628.86 102.953C-1535.62 107.295 -1439.79 98.7854 -1385.71 81.3843L-1202.62 23.2405C-1183.41 17.0283 -1151.55 13.3324 -1117.59 13.3883L-908.338 13.548C-776.958 13.7371 -657.048 30.1769 -597.288 56.1547L-535.398 83.6184C-515.278 92.3496 -478.078 98.5191 -434.688 100.311L-223.058 109.162C-166.648 111.471 -112.148 103.456 -99.6084 91.0288L-60.3984 54.6663C-46.3384 41.025 -1.10829 30.0544 58.5017 25.7568L219.402 13.0048C250.382 10.6164 284.782 13.4895 301.012 19.8348L522.822 105.828C547.522 115.167 593.192 120.74 641.822 120.364L893.312 118.226C909.792 118.191 925.142 116.336 934.212 113.284L1078.52 68.3874C1122.61 54.4985 1195.34 46.5023 1271.84 47.1573L1551.01 48.9174" stroke="#11243E" stroke-width="0.599902"/>
<path opacity="0.3" d="M-2046.99 43.7593L-1623.96 105.925C-1530.03 110.255 -1433.7 101.542 -1380.1 83.9042L-1201.3 26.1517C-1182.16 19.8144 -1149.87 16.0333 -1115.46 16.1131L-911.098 16.3581C-778.948 16.635 -658.728 33.3571 -599.818 59.6012L-537.548 88.1166C-517.748 96.9224 -480.608 103.177 -437.078 105.036L-222.358 114.334C-166.258 116.696 -111.778 108.822 -98.7084 96.4937L-55.5485 59.1299C-40.6185 45.4434 5.73161 34.5713 66.0216 30.5266L220.862 18.5256C251.092 16.2756 284.502 19.0768 300.572 25.2198L521.752 108.915C547.102 118.171 593.192 123.582 641.792 123.017L894.492 119.809C910.242 119.761 924.922 117.99 933.682 115.082L1083.13 70.878C1128.29 57.2793 1201.32 49.6585 1277.37 50.6384L1551.01 53.2798" stroke="#11243E" stroke-width="0.599902"/>
<path opacity="0.3" d="M-2046.99 47.4586L-1619.05 108.897C-1524.44 113.216 -1427.59 104.299 -1374.48 86.4236L-1199.97 29.0626C-1180.92 22.5974 -1148.21 18.7311 -1113.34 18.8376L-913.848 19.1625C-780.938 19.5379 -660.428 36.5369 -602.328 63.05L-539.718 92.6145C-520.218 101.492 -483.138 107.84 -439.468 109.757L-221.648 119.508C-165.858 121.921 -111.418 114.188 -97.8184 101.953L-50.6984 63.5932C-34.8984 49.8614 12.5616 39.0879 73.5316 35.2961L222.302 24.0433C251.822 21.9344 284.252 24.6637 300.122 30.6043L520.682 112.002C546.682 121.181 593.212 126.424 641.752 125.67L895.672 121.394C910.702 121.327 924.721 119.642 933.161 116.883L1087.74 73.3681C1133.97 60.0624 1207.32 52.8143 1282.9 54.1218L1551.01 57.6419" stroke="#11243E" stroke-width="0.599902"/>
<path opacity="0.3" d="M-2046.99 51.5175L-1614.16 111.87C-1518.83 116.178 -1421.49 107.053 -1368.87 88.9435L-1198.66 31.9739C-1179.67 25.3809 -1146.55 21.4267 -1111.22 21.5625L-916.598 21.9726C-782.918 22.4359 -662.128 39.7171 -604.848 66.4938L-541.888 97.1128C-522.678 106.065 -485.648 112.501 -441.878 114.479L-220.938 124.68C-165.468 127.149 -111.058 119.552 -96.9384 107.412L-45.8484 68.0568C-29.1684 54.2771 19.4116 43.6048 81.0316 40.066L223.752 29.5641C252.522 27.5963 283.992 30.2511 299.682 35.9893L519.602 115.092C546.252 124.185 593.212 129.268 641.722 128.326L896.872 122.976C911.162 122.896 924.502 121.291 932.632 118.687L1092.35 75.856C1139.64 62.8405 1213.31 55.9706 1288.45 57.6029L1551.01 62.0044" stroke="#11243E" stroke-width="0.599902"/>
<path opacity="0.3" d="M-2047 55.3747L-1609.26 114.842C-1513.24 119.137 -1415.39 109.81 -1363.25 91.4632L-1197.34 34.8877C-1178.42 28.1643 -1144.88 24.1275 -1109.11 24.2873L-919.348 24.7773C-784.908 25.3364 -663.818 42.8973 -607.368 69.9429L-544.038 101.611C-525.148 110.638 -488.178 117.159 -444.278 119.201L-220.238 129.855C-165.068 132.371 -110.698 124.918 -96.0385 112.875L-40.9884 72.5204C-23.4484 58.6954 26.2517 48.1216 88.5417 44.8331L225.202 35.0821C253.252 33.2555 283.722 35.8357 299.232 41.3742L518.522 118.181C545.822 127.195 593.212 132.11 641.682 130.979L898.042 124.564C911.622 124.463 924.302 122.945 932.092 120.485L1096.96 78.3465C1145.33 65.6212 1219.31 59.1241 1293.98 61.0866L1551.01 66.3668" stroke="#11243E" stroke-width="0.599902"/>
<path opacity="0.3" d="M-2046.99 59.3118L-1604.35 117.817C-1507.65 122.096 -1409.29 112.564 -1357.64 93.9832L-1196.01 37.7991C-1177.18 30.9479 -1143.21 26.8259 -1106.97 27.015L-922.098 27.5848C-786.898 28.2372 -665.518 46.0776 -609.888 73.3895L-546.208 106.112C-527.608 115.21 -490.698 121.822 -446.678 123.923L-219.528 135.027C-164.668 137.599 -110.338 130.284 -95.1484 118.337L-36.1384 76.9842C-17.7384 63.1139 33.0816 52.6387 96.0516 49.6031L226.651 40.603C253.961 38.9148 283.462 41.4258 298.782 46.762L517.442 121.268C545.402 130.199 593.212 134.952 641.632 133.634L899.232 126.146C912.072 126.032 924.082 124.597 931.572 122.288L1101.56 80.8345C1151.01 68.4022 1225.29 62.2831 1299.51 64.5678L1551.01 70.7294" stroke="#11243E" stroke-width="0.599902"/>
<path opacity="0.3" d="M-2047 63.402L-1599.45 120.79C-1502.06 125.056 -1403.19 115.318 -1352.02 96.5029L-1194.7 40.7129C-1175.92 33.7338 -1141.55 29.5266 -1104.87 29.7397L-924.848 30.392C-788.878 31.1376 -667.208 49.2576 -612.408 76.8358L-548.368 110.61C-530.078 119.781 -493.228 126.483 -449.078 128.645L-218.828 140.201C-164.278 142.821 -109.988 135.648 -94.2484 123.799L-31.2885 81.4503C-12.0185 67.5321 39.9218 57.1527 103.552 54.3728L228.112 46.1209C254.692 44.5739 283.212 47.0129 298.332 52.1441L516.372 124.358C544.972 133.209 593.212 137.794 641.602 136.284L900.432 127.729C912.542 127.601 923.882 126.251 931.042 124.086L1106.17 83.3249C1156.69 71.1827 1231.29 65.4365 1305.04 68.0513L1551.01 75.0943" stroke="#11243E" stroke-width="0.599902"/>
<path opacity="0.3" d="M-2046.99 67.2421L-1594.54 123.762C-1496.47 128.015 -1397.09 118.075 -1346.41 99.0224L-1193.38 43.6239C-1174.68 36.5143 -1139.89 32.2219 -1102.74 32.4643L-927.608 33.1992C-790.868 34.0379 -668.908 52.4376 -614.938 80.282L-550.528 115.108C-532.548 124.353 -495.758 131.141 -451.468 133.367L-218.118 145.376C-163.878 148.049 -109.628 141.014 -93.3684 129.258L-26.4283 85.911C-6.30834 71.9502 46.7716 61.6693 111.062 59.1397L229.562 51.6414C255.412 50.2355 282.931 52.5973 297.891 57.5287L515.302 127.448C544.552 136.216 593.222 140.636 641.562 138.94L901.602 129.314C913.002 129.168 923.662 127.903 930.512 125.89L1110.78 85.8152C1162.37 73.9659 1237.28 68.5925 1310.57 71.5348L1551.01 79.4539" stroke="#11243E" stroke-width="0.599902"/>
<path opacity="0.3" d="M-2047 71.3546L-1589.65 126.738C-1490.86 130.974 -1390.99 120.832 -1340.79 101.543L-1192.05 46.538C-1173.43 39.3007 -1138.22 34.9205 -1100.62 35.1895L-930.358 36.0068C-792.858 36.9361 -670.608 55.618 -617.448 83.7287L-552.698 119.607C-535.008 128.924 -498.278 135.804 -453.878 138.089L-217.408 150.548C-163.488 153.277 -109.268 146.381 -92.4784 134.723L-21.5784 90.3749C-0.578369 76.3688 53.6218 66.1865 118.562 63.9098L231.012 57.1597C256.112 55.895 282.682 58.1876 297.432 62.914L514.212 130.537C544.132 139.223 593.222 143.478 641.532 141.593L902.782 130.9C913.452 130.737 923.452 129.555 929.982 127.688L1115.39 88.3033C1168.05 76.7443 1243.28 71.7464 1316.1 75.0163L1551.01 83.8192" stroke="#11243E" stroke-width="0.599902"/>
<path opacity="0.3" d="M-2046.99 75.7571L-1584.75 129.71C-1485.27 133.936 -1384.89 123.588 -1335.18 104.06L-1190.73 49.4491C-1172.19 42.0839 -1136.56 37.6211 -1098.5 37.9167L-933.098 38.8114C-794.848 39.8365 -672.298 58.798 -619.978 87.175L-554.858 124.105C-537.478 133.496 -500.798 140.465 -456.268 142.813L-216.708 155.722C-163.088 158.5 -108.908 151.744 -91.5784 140.183L-16.7284 94.8384C5.13161 80.7844 60.4517 70.7005 126.072 68.6822L232.472 62.6803C256.842 61.554 282.422 63.772 296.992 68.2987L513.132 133.624C543.702 142.23 593.222 146.32 641.502 144.249L903.972 132.485C913.922 132.304 923.242 131.206 929.462 129.492L1119.98 90.791C1173.74 79.5249 1249.26 74.905 1321.65 78.4971L1551.01 88.1815" stroke="#11243E" stroke-width="0.599902"/>
<path opacity="0.3" d="M-2047 79.6057L-1579.84 132.682C-1479.68 136.895 -1378.78 126.342 -1329.56 106.579L-1189.42 52.3629C-1170.94 44.8673 -1134.89 40.3193 -1096.38 40.6415L-935.858 41.6187C-796.828 42.7371 -673.998 61.9781 -622.488 90.624L-557.018 128.603C-539.948 138.069 -503.318 145.123 -458.668 147.535L-215.998 160.894C-162.698 163.727 -108.538 157.11 -90.6984 145.645L-11.8784 99.3019C10.8616 85.2026 67.3018 75.2173 133.582 73.4492L233.922 68.1983C257.552 67.2157 282.152 69.3593 296.542 73.6836L512.062 136.711C543.272 145.237 593.222 149.162 641.472 146.899L905.152 134.067C914.392 133.873 923.032 132.858 928.922 131.292L1124.59 93.2841C1179.41 82.3082 1255.25 78.0611 1327.18 81.9834L1551.01 92.5412" stroke="#11243E" stroke-width="0.599902"/>
<path opacity="0.3" d="M-2047 83.8101L-1574.95 135.655C-1474.09 139.854 -1372.69 129.099 -1323.95 109.099L-1188.09 55.2746C-1169.7 47.6538 -1133.23 43.0153 -1094.25 43.3668L-938.608 44.4265C-798.818 45.6381 -675.698 65.1587 -625.018 94.0682L-559.178 133.101C-542.408 142.639 -505.848 149.783 -461.068 152.257L-215.288 166.069C-162.298 168.95 -108.188 162.477 -89.7985 151.107L-7.01843 103.766C16.5716 89.6188 74.1418 79.7346 141.082 78.2195L235.372 73.7195C258.282 72.8727 281.892 74.947 296.092 79.0689L510.982 139.801C542.852 148.244 593.222 152.004 641.432 149.554L906.342 135.65C914.842 135.439 922.832 134.513 928.392 133.093L1129.2 95.7724C1185.1 85.0868 1261.25 81.2151 1332.71 85.4649L1551.01 96.9067" stroke="#11243E" stroke-width="0.599902"/>
<path opacity="0.3" d="M-2046.99 88.0735L-1570.05 138.627C-1468.5 142.813 -1366.58 131.853 -1318.34 111.619L-1186.77 58.1854C-1168.45 50.4342 -1131.57 45.7158 -1092.13 46.0912L-941.358 47.2335C-800.808 48.5356 -677.398 68.3385 -627.528 97.517L-561.348 137.602C-544.878 147.212 -508.358 154.447 -463.468 156.982L-214.588 171.241C-161.908 174.178 -107.818 167.84 -88.9084 156.569L-2.17834 108.229C22.3017 94.0367 80.9717 84.2511 148.602 82.989L236.832 79.2372C258.992 78.5342 281.641 80.5339 295.651 84.4535L509.901 142.89C542.421 151.254 593.232 154.846 641.382 152.207L907.522 137.237C915.292 137.008 922.612 136.164 927.872 134.894L1133.81 98.2599C1190.78 87.8698 1267.23 84.371 1338.25 88.9456L1551.01 101.269" stroke="#11243E" stroke-width="0.599902"/>
<path opacity="0.3" d="M-2046.99 92.427L-1565.14 141.6C-1462.9 145.772 -1360.49 134.607 -1312.72 114.139L-1185.45 61.0997C-1167.21 53.2206 -1129.9 48.4143 -1090.01 48.8191L-944.118 50.0386C-802.798 51.4366 -679.088 71.519 -630.048 100.964L-563.508 142.1C-547.338 151.782 -510.888 159.105 -465.868 161.704L-213.878 176.415C-161.508 179.403 -107.458 173.207 -88.0284 162.028L2.67151 112.693C28.0115 98.4554 87.8117 88.7684 156.112 87.7592L238.282 84.7582C259.712 84.1964 281.362 86.1189 295.202 89.8388L508.842 145.98C542.002 154.259 593.232 157.688 641.352 154.863L908.712 138.82C915.762 138.575 922.392 137.816 927.352 136.692L1138.41 100.751C1196.46 90.6483 1273.23 87.5275 1343.78 92.427L1551.01 105.631" stroke="#11243E" stroke-width="0.599902"/>
<path opacity="0.3" d="M-2046.99 97.1238L-1560.24 144.575C-1457.31 148.734 -1354.38 137.364 -1307.11 116.659L-1184.12 64.0107C-1165.95 56.0011 -1128.24 51.115 -1087.89 51.5437L-946.868 52.8484C-804.778 54.3369 -680.788 74.699 -632.568 104.41L-565.668 146.599C-549.808 156.355 -513.408 163.765 -468.268 166.425L-213.168 181.59C-161.118 184.628 -107.098 178.573 -87.1284 167.491L7.52161 117.157C33.7316 102.874 94.6617 93.2823 163.622 92.5261L239.722 90.2761C260.422 89.8527 281.112 91.7086 294.762 95.2235L507.762 149.067C541.582 157.268 593.232 160.53 641.312 157.513L909.901 140.405C916.221 140.144 922.192 139.468 926.822 138.496L1143.02 103.241C1202.15 93.4288 1279.22 90.6835 1349.31 95.9131L1551.01 109.994" stroke="#11243E" stroke-width="0.599902"/>
<path opacity="0.3" d="M-2046.99 101.311L-1555.35 147.547C-1451.72 151.693 -1348.29 140.121 -1301.5 119.178L-1182.81 66.9218C-1164.7 58.7871 -1126.57 53.8104 -1085.76 54.2684L-949.618 55.653C-806.768 57.2374 -682.478 77.879 -635.088 107.856L-567.838 151.097C-552.278 160.925 -515.938 168.429 -470.658 171.147L-212.468 186.764C-160.718 189.853 -106.738 183.937 -86.2384 172.953L12.3817 121.623C39.4417 107.292 101.492 97.7991 171.122 97.2958L241.172 95.794C261.142 95.5144 280.862 97.2958 294.312 100.608L506.682 152.154C541.152 160.273 593.232 163.372 641.272 160.169L911.082 141.99C916.672 141.713 921.982 141.12 926.302 140.294L1147.63 105.729C1207.83 96.2121 1285.21 93.8369 1354.86 99.3941L1551.01 114.356" stroke="#11243E" stroke-width="0.599902"/>
<path opacity="0.3" d="M-2047 105.993L-1550.44 150.52C-1446.12 154.652 -1342.18 142.875 -1295.88 121.698L-1181.49 69.8327C-1163.46 61.5729 -1124.91 56.5083 -1083.64 56.9929L-952.378 58.4628C-808.758 60.1376 -684.178 81.0589 -637.618 111.3L-569.998 155.595C-554.738 165.5 -518.468 173.089 -473.068 175.869L-211.758 191.939C-160.328 195.078 -106.378 189.303 -85.3484 178.415L17.2317 126.084C45.1617 111.71 108.342 102.316 178.622 102.066L242.622 101.312C261.872 101.174 280.592 102.88 293.852 105.993L505.602 155.243C540.732 163.282 593.232 166.214 641.242 162.822L912.272 143.575C917.142 143.28 921.772 142.774 925.762 142.097L1152.24 108.217C1213.51 98.9899 1291.2 96.9928 1360.38 102.875L1551.01 118.721" stroke="#11243E" stroke-width="0.599902"/>
<path opacity="0.3" d="M-2046.99 110.707L-1545.54 153.495C-1440.53 157.612 -1336.08 145.632 -1290.27 124.218L-1180.17 72.7469C-1162.21 64.3539 -1123.24 59.2095 -1081.52 59.7181L-955.128 61.2678C-810.748 63.0358 -685.878 84.2393 -640.128 114.749L-572.158 160.093C-557.208 170.071 -520.988 177.747 -475.458 180.594L-211.058 197.111C-159.928 200.304 -106.018 194.669 -84.4584 183.874L22.0717 130.55C50.9017 116.129 115.192 106.833 186.122 106.833H244.082C262.582 106.833 280.331 108.471 293.411 111.378L504.532 158.333C540.302 166.287 593.242 169.059 641.202 165.477L913.442 145.158C917.592 144.849 921.562 144.426 925.232 143.899L1156.84 110.707C1219.19 101.774 1297.2 100.152 1365.92 106.359L1551.01 123.084" stroke="#11243E" stroke-width="0.599902"/>
</g>
</svg>
