
<svg width="52px" height="18px" viewBox="0 0 52 18" version="1.1" xmlns="http://www.w3.org/2000/svg" xmlns:xlink="http://www.w3.org/1999/xlink">
    <title>Group 49 Copy</title>
    <g id="Website" stroke="none" stroke-width="1" fill="none" fill-rule="evenodd">
        <g id="Homepage" transform="translate(-674.000000, -471.000000)" fill="#FFFFFF">
            <g id="Group-84" transform="translate(-300.000000, -520.000000)">
                <g id="Group-21" transform="translate(923.000000, 922.000000)">
                    <g id="Group-56" transform="translate(40.000000, 40.000000)">
                        <g id="Group-49-Copy" transform="translate(11.000000, 29.000000)">
                            <path d="M21.8369749,3.05044667 C23.1237888,3.05044667 24.4817647,3.5856838 25.2678642,4.45995351 L25.2678642,3.31806523 L27.1261858,3.31806523 L27.1261858,11.8987924 C27.1261858,15.109847 25.14287,17.0899299 21.78388,17.0899299 C19.5144416,17.0899299 17.7276506,15.8946652 16.88735,13.9683269 L18.9606322,13.9683269 C19.6571341,14.9493495 20.5866636,15.3955032 21.8015783,15.3955032 C24.0710166,15.3955032 25.2678642,14.1645314 25.2678642,11.8987924 L25.2320989,11.8987924 C24.4636977,12.9335596 23.2310848,13.4511273 21.8192766,13.4511273 C18.9779618,13.4511273 16.5304343,11.0068532 16.5304343,8.33103575 C16.5304343,5.35189268 18.8533363,3.05044667 21.8369749,3.05044667 Z M30.0363949,3.31832291 L32.9485029,10.9890734 L35.9328789,3.31832291 L37.933893,3.31832291 L32.4658555,16.501574 L30.5367407,16.501574 L31.9835768,13.0048632 L28.0350121,3.31832291 L30.0363949,3.31832291 Z M46.8719173,3.05033624 C49.784394,3.05033624 52,5.29803766 52,8.13472079 C52,8.43804636 52,8.72333438 51.9465364,9.06236697 L43.74448,9.06236697 C44.1732951,10.7037854 45.4781761,11.7558539 46.9969116,11.7558539 C48.1583626,11.7558539 49.2482829,11.1495709 49.8201593,10.0967661 L51.6784809,10.0967661 C50.9100796,12.1309616 49.051758,13.4510169 46.9253809,13.4510169 C44.1378985,13.4510169 41.8861584,10.9890734 41.8861584,8.34859477 C41.8861584,5.22699174 44.2451945,3.05033624 46.8719173,3.05033624 Z M5.18191503,3.05059392 C6.62911984,3.05059392 7.84440317,3.58546293 8.61280441,4.70968175 L8.64820101,4.70968175 L8.64820101,3.31821248 L10.5065226,3.31821248 L10.5065226,13.2009573 L8.64820101,13.2009573 L8.64820101,11.6670281 L8.61280441,11.6670281 C7.91593381,12.8442553 6.66488516,13.4509064 5.25344566,13.4509064 C2.35866731,13.4509064 -1.04805054e-13,11.2746191 -1.04805054e-13,8.42026648 C-1.04805054e-13,5.26258833 2.26943838,3.05059392 5.18191503,3.05059392 Z M16.476012,3.05037305 L16.476012,4.95904188 C14.8680476,5.01278646 14.0458141,5.99380911 14.0458141,7.65289694 L14.0458141,13.2011046 L12.1874925,13.2011046 L12.1874925,3.31799161 L13.9204511,3.31799161 L13.9204511,4.20993078 L13.9565851,4.20993078 C14.4030985,3.54990316 15.1714998,3.12178708 16.476012,3.05037305 Z M40.7072304,9.85878046e-14 L40.7072304,13.2012886 L38.8489088,13.2012886 L38.8489088,9.85878046e-14 L40.7072304,9.85878046e-14 Z M5.23537864,4.74538877 C3.37705705,4.74538877 1.8583216,6.33306257 1.8583216,8.27743842 C1.8583216,10.1330989 3.37705705,11.7561116 5.23537864,11.7561116 C7.16523088,11.7561116 8.68433504,10.1504002 8.68433504,8.27743842 C8.68433504,6.35073202 7.29059384,4.74538877 5.23537864,4.74538877 Z M21.78388,4.74524152 C19.9432567,4.74524152 18.3887559,6.33291532 18.3887559,8.25962172 C18.3887559,10.1506211 19.960955,11.7559644 21.8015783,11.7559644 C23.9637207,11.7559644 25.2678642,9.86496497 25.2678642,8.25962172 C25.2678642,5.94050627 23.4991403,4.74524152 21.78388,4.74524152 Z M46.9253809,4.74513109 C45.4062768,4.74513109 43.8875413,5.94039583 43.74448,7.63519068 L50.1416784,7.63519068 C49.9986171,5.95806528 48.515647,4.74513109 46.9253809,4.74513109 Z" id="Combined-Shape"></path>
                        </g>
                    </g>
                </g>
            </g>
        </g>
    </g>
</svg>